<mxfile host="Electron" agent="Mozilla/5.0 (Macintosh; Intel Mac OS X 10_15_7) AppleWebKit/537.36 (KHTML, like Gecko) draw.io/28.0.6 Chrome/138.0.7204.100 Electron/37.2.3 Safari/537.36" version="28.0.6">
  <diagram name="Page-1" id="cKaa69pPRSBznvMB84aE">
    <mxGraphModel dx="881" dy="589" grid="1" gridSize="10" guides="1" tooltips="1" connect="1" arrows="1" fold="1" page="1" pageScale="1" pageWidth="1169" pageHeight="827" math="0" shadow="0">
      <root>
        <mxCell id="0" />
        <mxCell id="1" parent="0" />
        <mxCell id="BrEKt-sjprVkLCfW9coZ-2" value="&lt;b&gt;Ark&lt;/b&gt;" style="rounded=1;whiteSpace=wrap;html=1;fillColor=#dae8fc;strokeColor=#6c8ebf;verticalAlign=top;" parent="1" vertex="1">
          <mxGeometry x="40" y="40" width="480" height="230" as="geometry" />
        </mxCell>
        <mxCell id="BrEKt-sjprVkLCfW9coZ-4" value="&lt;font&gt;&lt;b&gt;Models&lt;/b&gt;&lt;br&gt;&lt;/font&gt;" style="rounded=1;whiteSpace=wrap;html=1;fillColor=#d5e8d4;strokeColor=#82b366;fontSize=10;verticalAlign=middle;" parent="1" vertex="1">
          <mxGeometry x="150" y="160" width="80" height="40" as="geometry" />
        </mxCell>
        <mxCell id="BrEKt-sjprVkLCfW9coZ-5" value="&lt;font&gt;&lt;b&gt;Agents&lt;/b&gt;&lt;/font&gt;" style="rounded=1;whiteSpace=wrap;html=1;fillColor=#d5e8d4;strokeColor=#82b366;fontSize=10;verticalAlign=middle;" parent="1" vertex="1">
          <mxGeometry x="240" y="160" width="80" height="40" as="geometry" />
        </mxCell>
        <mxCell id="BrEKt-sjprVkLCfW9coZ-6" value="&lt;font&gt;&lt;b&gt;MCP Servers&lt;/b&gt;&lt;br&gt;&lt;/font&gt;" style="rounded=1;whiteSpace=wrap;html=1;fillColor=#d5e8d4;strokeColor=#82b366;fontSize=10;verticalAlign=middle;" parent="1" vertex="1">
          <mxGeometry x="330" y="160" width="80" height="40" as="geometry" />
        </mxCell>
        <mxCell id="BrEKt-sjprVkLCfW9coZ-7" value="&lt;font&gt;&lt;b&gt;Tools&lt;/b&gt;&lt;/font&gt;" style="rounded=1;whiteSpace=wrap;html=1;fillColor=#d5e8d4;strokeColor=#82b366;fontSize=10;verticalAlign=middle;" parent="1" vertex="1">
          <mxGeometry x="330" y="210" width="80" height="40" as="geometry" />
        </mxCell>
        <mxCell id="BrEKt-sjprVkLCfW9coZ-8" value="&lt;font&gt;&lt;b&gt;A2A Servers&lt;/b&gt;&lt;br&gt;&lt;/font&gt;" style="rounded=1;whiteSpace=wrap;html=1;fillColor=#d5e8d4;strokeColor=#82b366;fontSize=10;verticalAlign=middle;" parent="1" vertex="1">
          <mxGeometry x="420" y="160" width="80" height="40" as="geometry" />
        </mxCell>
        <mxCell id="BrEKt-sjprVkLCfW9coZ-9" value="&lt;font&gt;&lt;b&gt;Queries&lt;/b&gt;&lt;br&gt;&lt;/font&gt;" style="rounded=1;whiteSpace=wrap;html=1;fillColor=#d5e8d4;strokeColor=#82b366;fontSize=10;verticalAlign=middle;" parent="1" vertex="1">
          <mxGeometry x="60" y="160" width="80" height="40" as="geometry" />
        </mxCell>
        <mxCell id="BrEKt-sjprVkLCfW9coZ-10" value="&lt;font&gt;&lt;b&gt;Teams&lt;/b&gt;&lt;/font&gt;" style="rounded=1;whiteSpace=wrap;html=1;fillColor=#d5e8d4;strokeColor=#82b366;fontSize=10;verticalAlign=middle;" parent="1" vertex="1">
          <mxGeometry x="240" y="210" width="80" height="40" as="geometry" />
        </mxCell>
        <mxCell id="BrEKt-sjprVkLCfW9coZ-11" value="&lt;font&gt;&lt;b&gt;Query Engines&lt;/b&gt;&lt;br&gt;&lt;/font&gt;" style="rounded=1;whiteSpace=wrap;html=1;fillColor=#d5e8d4;strokeColor=#82b366;fontSize=10;verticalAlign=middle;" parent="1" vertex="1">
          <mxGeometry x="60" y="210" width="80" height="40" as="geometry" />
        </mxCell>
        <mxCell id="BrEKt-sjprVkLCfW9coZ-12" value="&lt;font&gt;&lt;b&gt;Evaluators / Evaluations&lt;/b&gt;&lt;/font&gt;" style="rounded=1;whiteSpace=wrap;html=1;fillColor=#d5e8d4;strokeColor=#82b366;fontSize=10;verticalAlign=middle;" parent="1" vertex="1">
          <mxGeometry x="420" y="210" width="80" height="40" as="geometry" />
        </mxCell>
        <mxCell id="BrEKt-sjprVkLCfW9coZ-13" value="&lt;font&gt;&lt;b&gt;Memory&lt;/b&gt;&lt;/font&gt;" style="rounded=1;whiteSpace=wrap;html=1;fillColor=#d5e8d4;strokeColor=#82b366;fontSize=10;verticalAlign=middle;" parent="1" vertex="1">
          <mxGeometry x="150" y="210" width="80" height="40" as="geometry" />
        </mxCell>
        <mxCell id="BrEKt-sjprVkLCfW9coZ-53" value="&lt;span&gt;A2A&lt;/span&gt;" style="ellipse;whiteSpace=wrap;html=1;aspect=fixed;fontSize=8;fontStyle=0" parent="1" vertex="1">
          <mxGeometry x="360" y="30" width="25" height="25" as="geometry" />
        </mxCell>
        <mxCell id="BrEKt-sjprVkLCfW9coZ-54" value="&lt;span&gt;MCP&lt;/span&gt;" style="ellipse;whiteSpace=wrap;html=1;aspect=fixed;fontSize=8;fontStyle=0" parent="1" vertex="1">
          <mxGeometry x="390" y="30" width="25" height="25" as="geometry" />
        </mxCell>
        <mxCell id="BrEKt-sjprVkLCfW9coZ-55" value="&lt;span&gt;REST&lt;/span&gt;" style="ellipse;whiteSpace=wrap;html=1;aspect=fixed;fontSize=8;fontStyle=0" parent="1" vertex="1">
          <mxGeometry x="420" y="30" width="25" height="25" as="geometry" />
        </mxCell>
        <mxCell id="GjzOAwkxd7Iusa0UOkDc-2" value="&lt;font&gt;&lt;b&gt;Ark APIs&lt;br&gt;&lt;/b&gt;REST/A2A/MCP&lt;br&gt;&lt;/font&gt;" style="rounded=1;whiteSpace=wrap;html=1;fillColor=#f5f5f5;fontColor=#333333;strokeColor=#666666;verticalAlign=middle;fontSize=10;" vertex="1" parent="1">
          <mxGeometry x="60" y="92.5" width="80" height="40" as="geometry" />
        </mxCell>
        <mxCell id="GjzOAwkxd7Iusa0UOkDc-3" value="&lt;font&gt;&lt;b&gt;Dashboard&lt;/b&gt;&lt;br&gt;&lt;/font&gt;" style="rounded=1;whiteSpace=wrap;html=1;fillColor=#f5f5f5;fontColor=#333333;strokeColor=#666666;verticalAlign=middle;fontSize=10;" vertex="1" parent="1">
          <mxGeometry x="150" y="92.5" width="80" height="40" as="geometry" />
        </mxCell>
        <mxCell id="GjzOAwkxd7Iusa0UOkDc-4" value="&lt;b&gt;Evaluator&lt;/b&gt;&lt;div&gt;LLM / Cost&lt;/div&gt;" style="rounded=1;whiteSpace=wrap;html=1;fillColor=#f5f5f5;fontColor=#333333;strokeColor=#666666;verticalAlign=middle;fontSize=10;" vertex="1" parent="1">
          <mxGeometry x="330" y="92.5" width="80" height="40" as="geometry" />
        </mxCell>
        <mxCell id="GjzOAwkxd7Iusa0UOkDc-5" value="&lt;font&gt;&lt;b&gt;Gateway&lt;/b&gt;&lt;br&gt;&lt;/font&gt;" style="rounded=1;whiteSpace=wrap;html=1;fillColor=#f5f5f5;fontColor=#333333;strokeColor=#666666;verticalAlign=middle;fontSize=10;" vertex="1" parent="1">
          <mxGeometry x="240" y="92.5" width="80" height="40" as="geometry" />
        </mxCell>
        <mxCell id="GjzOAwkxd7Iusa0UOkDc-6" value="&lt;font&gt;&lt;b&gt;Memory&lt;/b&gt;&lt;br&gt;&lt;/font&gt;&lt;div&gt;&lt;font&gt;Postgres&lt;/font&gt;&lt;/div&gt;" style="rounded=1;whiteSpace=wrap;html=1;fillColor=#f5f5f5;fontColor=#333333;strokeColor=#666666;verticalAlign=middle;fontSize=10;" vertex="1" parent="1">
          <mxGeometry x="420" y="92.5" width="80" height="40" as="geometry" />
        </mxCell>
        <mxCell id="GjzOAwkxd7Iusa0UOkDc-8" value="Optional Services" style="text;html=1;align=center;verticalAlign=middle;whiteSpace=wrap;rounded=0;" vertex="1" parent="1">
          <mxGeometry x="60" y="60" width="440" height="27.5" as="geometry" />
        </mxCell>
        <mxCell id="GjzOAwkxd7Iusa0UOkDc-9" value="Resources" style="text;html=1;align=center;verticalAlign=middle;whiteSpace=wrap;rounded=0;" vertex="1" parent="1">
          <mxGeometry x="60" y="132.5" width="440" height="27.5" as="geometry" />
        </mxCell>
      </root>
    </mxGraphModel>
  </diagram>
</mxfile>
